<svg xmlns="http://www.w3.org/2000/svg" xmlns:xlink="http://www.w3.org/1999/xlink" width="256" zoomAndPan="magnify" viewBox="0 0 192 191.999996" height="256" preserveAspectRatio="xMidYMid meet" version="1.0"><rect x="-19.2" width="230.4" fill="#ffffff" y="-19.2" height="230.399995" fill-opacity="1"/><rect x="-19.2" width="230.4" fill="#ffffff" y="-19.2" height="230.399995" fill-opacity="1"/><rect x="-19.2" width="230.4" fill="#ff956b" y="-19.2" height="230.399995" fill-opacity="1"/><path fill="#05668d" d="M 144.859375 74.257812 C 144.609375 59.933594 135.945312 49.90625 120.066406 49.90625 C 109.675781 49.90625 102.121094 55.257812 98.46875 61.175781 C 94.628906 54.1875 87.320312 49.90625 76.933594 49.90625 C 66.292969 49.90625 60.5625 55.699219 58.613281 58.78125 L 58.613281 51.164062 L 46.078125 51.164062 L 46.078125 111.605469 L 46.175781 111.605469 C 46.429688 125.933594 55.089844 135.960938 70.96875 135.960938 C 81.359375 135.960938 88.914062 130.609375 92.566406 124.691406 C 96.40625 131.679688 103.714844 135.960938 114.101562 135.960938 C 124.742188 135.960938 130.472656 130.167969 132.421875 127.078125 L 132.421875 134.699219 L 144.960938 134.699219 L 144.960938 74.257812 Z M 72.929688 124.125 C 64.054688 124.125 58.703125 118.328125 58.703125 108.316406 L 58.703125 75.710938 C 59.546875 66.832031 66.546875 61.742188 74.984375 61.742188 C 83.867188 61.742188 89.21875 67.535156 89.21875 77.542969 L 89.21875 110.300781 C 88.34375 119.039062 81.359375 124.125 72.929688 124.125 Z M 116.058594 124.125 C 107.183594 124.125 101.832031 118.328125 101.832031 108.316406 L 101.832031 75.5625 C 102.699219 66.8125 109.683594 61.742188 118.113281 61.742188 C 126.988281 61.742188 132.339844 67.535156 132.339844 77.542969 L 132.339844 110.15625 C 131.519531 119.039062 124.496094 124.125 116.058594 124.125 Z M 116.058594 124.125 " fill-opacity="1" fill-rule="nonzero"/><path fill="#05668d" d="M 84.867188 107.117188 C 84.867188 107.765625 84.824219 108.410156 84.734375 109.046875 C 84.640625 109.6875 84.507812 110.304688 84.332031 110.90625 C 84.152344 111.507812 83.9375 112.078125 83.679688 112.617188 C 83.421875 113.160156 83.128906 113.660156 82.800781 114.117188 C 82.472656 114.578125 82.113281 114.988281 81.730469 115.351562 C 81.34375 115.710938 80.9375 116.015625 80.507812 116.265625 C 80.078125 116.515625 79.636719 116.703125 79.179688 116.828125 C 78.726562 116.957031 78.265625 117.019531 77.804688 117.019531 C 77.339844 117.019531 76.878906 116.957031 76.425781 116.828125 C 75.96875 116.703125 75.527344 116.515625 75.097656 116.265625 C 74.671875 116.015625 74.261719 115.710938 73.878906 115.351562 C 73.492188 114.988281 73.136719 114.578125 72.808594 114.117188 C 72.480469 113.660156 72.1875 113.160156 71.929688 112.617188 C 71.671875 112.078125 71.453125 111.507812 71.277344 110.90625 C 71.097656 110.304688 70.964844 109.6875 70.875 109.046875 C 70.78125 108.410156 70.738281 107.765625 70.738281 107.117188 C 70.738281 106.464844 70.78125 105.824219 70.875 105.183594 C 70.964844 104.546875 71.097656 103.929688 71.277344 103.328125 C 71.453125 102.726562 71.671875 102.15625 71.929688 101.617188 C 72.1875 101.074219 72.480469 100.574219 72.808594 100.113281 C 73.136719 99.65625 73.492188 99.246094 73.878906 98.882812 C 74.261719 98.523438 74.671875 98.21875 75.097656 97.96875 C 75.527344 97.71875 75.96875 97.53125 76.425781 97.40625 C 76.878906 97.277344 77.339844 97.214844 77.804688 97.214844 C 78.265625 97.214844 78.726562 97.277344 79.179688 97.40625 C 79.636719 97.53125 80.078125 97.71875 80.507812 97.96875 C 80.9375 98.21875 81.34375 98.523438 81.730469 98.882812 C 82.113281 99.246094 82.472656 99.65625 82.800781 100.113281 C 83.128906 100.574219 83.421875 101.074219 83.679688 101.617188 C 83.9375 102.15625 84.152344 102.726562 84.332031 103.328125 C 84.507812 103.929688 84.640625 104.546875 84.734375 105.183594 C 84.824219 105.824219 84.867188 106.464844 84.867188 107.117188 Z M 84.867188 107.117188 " fill-opacity="1" fill-rule="nonzero"/><path fill="#05668d" d="M 127.851562 107.117188 C 127.851562 107.765625 127.808594 108.410156 127.71875 109.046875 C 127.625 109.6875 127.492188 110.304688 127.316406 110.90625 C 127.136719 111.507812 126.917969 112.078125 126.660156 112.617188 C 126.402344 113.160156 126.113281 113.660156 125.785156 114.117188 C 125.457031 114.578125 125.097656 114.988281 124.710938 115.351562 C 124.328125 115.710938 123.917969 116.015625 123.492188 116.265625 C 123.0625 116.515625 122.621094 116.703125 122.164062 116.828125 C 121.710938 116.957031 121.25 117.019531 120.789062 117.019531 C 120.324219 117.019531 119.863281 116.957031 119.410156 116.828125 C 118.953125 116.703125 118.511719 116.515625 118.082031 116.265625 C 117.65625 116.015625 117.246094 115.710938 116.863281 115.351562 C 116.476562 114.988281 116.117188 114.578125 115.792969 114.117188 C 115.464844 113.660156 115.171875 113.160156 114.914062 112.617188 C 114.65625 112.078125 114.4375 111.507812 114.257812 110.90625 C 114.082031 110.304688 113.949219 109.6875 113.855469 109.046875 C 113.765625 108.410156 113.722656 107.765625 113.722656 107.117188 C 113.722656 106.464844 113.765625 105.824219 113.855469 105.183594 C 113.949219 104.546875 114.082031 103.929688 114.257812 103.328125 C 114.4375 102.726562 114.65625 102.15625 114.914062 101.617188 C 115.171875 101.074219 115.464844 100.574219 115.792969 100.113281 C 116.117188 99.65625 116.476562 99.246094 116.863281 98.882812 C 117.246094 98.523438 117.65625 98.21875 118.082031 97.96875 C 118.511719 97.71875 118.953125 97.53125 119.410156 97.40625 C 119.863281 97.277344 120.324219 97.214844 120.789062 97.214844 C 121.25 97.214844 121.710938 97.277344 122.164062 97.40625 C 122.621094 97.53125 123.0625 97.71875 123.492188 97.96875 C 123.917969 98.21875 124.328125 98.523438 124.710938 98.882812 C 125.097656 99.246094 125.457031 99.65625 125.785156 100.113281 C 126.113281 100.574219 126.402344 101.074219 126.660156 101.617188 C 126.917969 102.15625 127.136719 102.726562 127.316406 103.328125 C 127.492188 103.929688 127.625 104.546875 127.71875 105.183594 C 127.808594 105.824219 127.851562 106.464844 127.851562 107.117188 Z M 127.851562 107.117188 " fill-opacity="1" fill-rule="nonzero"/><path fill="#05668d" d="M 74.628906 145.59375 C 75.9375 148.105469 78.382812 149.941406 80.945312 151.035156 C 83.875 152.335938 86.925781 152.753906 90.097656 152.292969 C 91.671875 152.0625 93.113281 151.488281 94.414062 150.574219 C 95.324219 149.917969 95.855469 148.679688 95.183594 147.636719 C 94.601562 146.734375 93.222656 146.160156 92.246094 146.867188 C 92.019531 147.03125 91.785156 147.179688 91.546875 147.320312 C 91.28125 147.425781 91.03125 147.550781 90.792969 147.699219 C 90.792969 147.699219 91.21875 147.539062 91.003906 147.609375 L 90.820312 147.675781 L 90.378906 147.824219 C 90.101562 147.910156 89.824219 147.984375 89.539062 148.042969 L 89.136719 148.117188 C 89.046875 148.125 88.957031 148.140625 88.867188 148.160156 C 88.867188 148.160156 89.347656 148.113281 89.097656 148.128906 C 88.847656 148.140625 88.496094 148.1875 88.195312 148.195312 C 87.578125 148.21875 86.964844 148.199219 86.351562 148.136719 L 86.136719 148.113281 C 85.84375 148.113281 86.574219 148.1875 86.28125 148.113281 L 85.847656 148.046875 C 85.539062 147.992188 85.234375 147.925781 84.925781 147.855469 C 84.3125 147.707031 83.710938 147.523438 83.121094 147.300781 C 83.054688 147.277344 82.523438 147.085938 82.839844 147.195312 C 83.15625 147.308594 82.714844 147.140625 82.636719 147.101562 C 82.335938 146.960938 82.039062 146.8125 81.742188 146.65625 C 81.21875 146.359375 80.714844 146.039062 80.222656 145.695312 C 80.035156 145.566406 80.386719 145.8125 80.386719 145.820312 C 80.386719 145.824219 80.199219 145.671875 80.179688 145.652344 C 80.058594 145.550781 79.9375 145.449219 79.824219 145.34375 C 79.585938 145.117188 79.34375 144.886719 79.132812 144.644531 L 78.839844 144.296875 C 78.691406 144.128906 78.984375 144.484375 78.984375 144.480469 C 78.941406 144.40625 78.890625 144.335938 78.835938 144.273438 C 78.644531 144 78.472656 143.714844 78.320312 143.417969 C 78.175781 143.175781 77.992188 142.96875 77.761719 142.796875 C 77.535156 142.625 77.285156 142.503906 77.011719 142.433594 C 76.734375 142.359375 76.457031 142.34375 76.175781 142.382812 C 75.894531 142.417969 75.628906 142.507812 75.382812 142.652344 C 75.140625 142.800781 74.9375 142.984375 74.769531 143.214844 C 74.597656 143.441406 74.480469 143.691406 74.40625 143.964844 C 74.335938 144.238281 74.316406 144.515625 74.351562 144.796875 C 74.386719 145.078125 74.472656 145.339844 74.609375 145.589844 Z M 74.628906 145.59375 " fill-opacity="1" fill-rule="nonzero"/></svg>